<svg width="17" height="17" viewBox="0 0 17 17" fill="none" xmlns="http://www.w3.org/2000/svg">
<path d="M4.65133 7.83333H12.3493C12.924 7.83333 13.2293 7.15333 12.8473 6.72333L8.99866 2.39333C8.93624 2.32287 8.85957 2.26646 8.77372 2.22782C8.68787 2.18919 8.59481 2.16921 8.50067 2.16921C8.40653 2.16921 8.31346 2.18919 8.22761 2.22782C8.14176 2.26646 8.06509 2.32287 8.00266 2.39333L4.15266 6.72333C3.77067 7.15333 4.076 7.83333 4.65133 7.83333ZM8.002 14.606C8.06443 14.6765 8.1411 14.7329 8.22694 14.7715C8.31279 14.8101 8.40586 14.8301 8.5 14.8301C8.59414 14.8301 8.68721 14.8101 8.77305 14.7715C8.8589 14.7329 8.93557 14.6765 8.998 14.606L12.8467 10.276C13.2293 9.84667 12.924 9.16667 12.3487 9.16667H4.65133C4.07667 9.16667 3.77133 9.84667 4.15333 10.2767L8.002 14.606Z" fill="#9E9E9E" fill-opacity="0.6"/>
</svg>
