<svg xmlns="http://www.w3.org/2000/svg" width="127" height="127" fill="none"><rect width="126" height="126" x=".516" y=".146" fill="url(#a)" rx="4"/><path fill="#fff" fill-rule="evenodd" d="M86.884 28.247a42 42 0 0 0-23.322-7.101 42.024 42.024 0 0 0-42.046 42 42 42 0 0 0 23.046 37.48 39.7 39.7 0 0 0 1.629-7.943 11.37 11.37 0 0 0-2.151-6.458 30.5 30.5 0 0 1-9.581-13.824 35.62 35.62 0 0 0 17.883-38.445 30.63 30.63 0 0 1 33.867 8.019 30.7 30.7 0 0 1 6.242 10.59 35.74 35.74 0 0 0-14.972 16.196 35.36 35.36 0 0 0-2.512 22.176 30.66 30.66 0 0 1-17.12 1.714 31.2 31.2 0 0 1-5.936 4.56 70 70 0 0 1-7.007 3.586 42.02 42.02 0 0 0 26.788 3.545 41.99 41.99 0 0 0 33.011-32.974 42 42 0 0 0-17.82-43.121M35.671 49.593a30.58 30.58 0 0 0-2.052 19.853 32.55 32.55 0 0 0 15.916-34.21 30.58 30.58 0 0 0-13.864 14.357M91.37 75.285a30.63 30.63 0 0 0 1.954-19.703 32.58 32.58 0 0 0-15.552 34.094A30.63 30.63 0 0 0 91.37 75.285" clip-rule="evenodd"/><defs><linearGradient id="a" x1=".516" x2="123.409" y1=".146" y2="1.193" gradientUnits="userSpaceOnUse"><stop stop-color="#70E000"/><stop offset="1" stop-color="#00B562"/></linearGradient></defs></svg>